<svg width="18" height="19" viewBox="0 0 18 19" fill="none" xmlns="http://www.w3.org/2000/svg">
<g clip-path="url(#clip0)">
<path fill-rule="evenodd" clip-rule="evenodd" d="M0 3.43564C0 3.28584 0.0592632 3.14216 0.164752 3.03623C0.270242 2.9303 0.413316 2.87079 0.5625 2.87079H2.25C2.37547 2.87082 2.49733 2.91298 2.5962 2.99057C2.69506 3.06815 2.76526 3.1767 2.79562 3.29895L3.25125 5.13021H16.3125C16.3979 5.13023 16.4823 5.1498 16.559 5.18743C16.6358 5.22506 16.7031 5.27977 16.7557 5.34739C16.8083 5.41501 16.8448 5.49377 16.8626 5.5777C16.8803 5.66163 16.8788 5.74851 16.8581 5.83176L15.1706 12.61C15.1403 12.7323 15.0701 12.8408 14.9712 12.9184C14.8723 12.996 14.7505 13.0382 14.625 13.0382H4.5C4.37453 13.0382 4.25267 12.996 4.1538 12.9184C4.05494 12.8408 3.98474 12.7323 3.95438 12.61L1.81125 4.0005H0.5625C0.413316 4.0005 0.270242 3.94099 0.164752 3.83506C0.0592632 3.72913 0 3.58545 0 3.43564ZM3.5325 6.25992L4.095 8.51934H5.625V6.25992H3.5325ZM6.75 6.25992V8.51934H9V6.25992H6.75ZM10.125 6.25992V8.51934H12.375V6.25992H10.125ZM13.5 6.25992V8.51934H15.03L15.5925 6.25992H13.5ZM14.7487 9.64905H13.5V11.9085H14.1862L14.7487 9.64905ZM12.375 9.64905H10.125V11.9085H12.375V9.64905ZM9 9.64905H6.75V11.9085H9V9.64905ZM5.625 9.64905H4.37625L4.93875 11.9085H5.625V9.64905ZM5.625 15.2976C5.32663 15.2976 5.04048 15.4166 4.8295 15.6285C4.61853 15.8404 4.5 16.1277 4.5 16.4273C4.5 16.7269 4.61853 17.0143 4.8295 17.2261C5.04048 17.438 5.32663 17.557 5.625 17.557C5.92337 17.557 6.20952 17.438 6.4205 17.2261C6.63147 17.0143 6.75 16.7269 6.75 16.4273C6.75 16.1277 6.63147 15.8404 6.4205 15.6285C6.20952 15.4166 5.92337 15.2976 5.625 15.2976ZM3.375 16.4273C3.375 15.8281 3.61205 15.2534 4.03401 14.8297C4.45597 14.4059 5.02826 14.1679 5.625 14.1679C6.22174 14.1679 6.79403 14.4059 7.21599 14.8297C7.63795 15.2534 7.875 15.8281 7.875 16.4273C7.875 17.0266 7.63795 17.6012 7.21599 18.025C6.79403 18.4487 6.22174 18.6867 5.625 18.6867C5.02826 18.6867 4.45597 18.4487 4.03401 18.025C3.61205 17.6012 3.375 17.0266 3.375 16.4273ZM13.5 15.2976C13.2016 15.2976 12.9155 15.4166 12.7045 15.6285C12.4935 15.8404 12.375 16.1277 12.375 16.4273C12.375 16.7269 12.4935 17.0143 12.7045 17.2261C12.9155 17.438 13.2016 17.557 13.5 17.557C13.7984 17.557 14.0845 17.438 14.2955 17.2261C14.5065 17.0143 14.625 16.7269 14.625 16.4273C14.625 16.1277 14.5065 15.8404 14.2955 15.6285C14.0845 15.4166 13.7984 15.2976 13.5 15.2976ZM11.25 16.4273C11.25 15.8281 11.4871 15.2534 11.909 14.8297C12.331 14.4059 12.9033 14.1679 13.5 14.1679C14.0967 14.1679 14.669 14.4059 15.091 14.8297C15.5129 15.2534 15.75 15.8281 15.75 16.4273C15.75 17.0266 15.5129 17.6012 15.091 18.025C14.669 18.4487 14.0967 18.6867 13.5 18.6867C12.9033 18.6867 12.331 18.4487 11.909 18.025C11.4871 17.6012 11.25 17.0266 11.25 16.4273Z" fill="white"/>
</g>
<defs>
<clipPath id="clip0">
<rect width="18" height="18.0754" fill="white" transform="translate(0 0.611389)"/>
</clipPath>
</defs>
</svg>
